# Blender 3.6.2
# www.blender.org
o Cube
v 0.214029 0.004336 -0.175354
v 0.214029 0.497823 -0.175354
v 0.661951 0.004336 0.031759
v 0.661951 0.497823 0.031759
v 0.006916 0.004336 0.272568
v 0.006916 0.497823 0.272568
v 0.454838 0.004336 0.479681
v 0.454838 0.497823 0.479681
vn 0.4197 -0.0000 -0.9077
vn 0.9077 -0.0000 0.4197
vn -0.4197 -0.0000 0.9077
vn -0.9077 -0.0000 -0.4197
vn -0.0000 -1.0000 -0.0000
vn -0.0000 1.0000 -0.0000
vt 0.625000 0.000000
vt 0.375000 0.250000
vt 0.375000 0.000000
vt 0.625000 0.250000
vt 0.375000 0.500000
vt 0.625000 0.500000
vt 0.375000 0.750000
vt 0.625000 0.750000
vt 0.375000 1.000000
vt 0.125000 0.750000
vt 0.125000 0.500000
vt 0.875000 0.500000
vt 0.625000 1.000000
vt 0.875000 0.750000
s 0
f 2/1/1 3/2/1 1/3/1
f 4/4/2 7/5/2 3/2/2
f 8/6/3 5/7/3 7/5/3
f 6/8/4 1/9/4 5/7/4
f 7/5/5 1/10/5 3/11/5
f 4/12/6 6/8/6 8/6/6
f 2/1/1 4/4/1 3/2/1
f 4/4/2 8/6/2 7/5/2
f 8/6/3 6/8/3 5/7/3
f 6/8/4 2/13/4 1/9/4
f 7/5/5 5/7/5 1/10/5
f 4/12/6 2/14/6 6/8/6
o Cube.001
v -0.680317 0.004336 -0.290084
v -0.680317 1.027769 -0.290084
v -0.245837 0.004336 -0.524086
v -0.245837 1.027769 -0.524086
v -0.446314 0.004336 0.144396
v -0.446314 1.027769 0.144396
v -0.011835 0.004336 -0.089607
v -0.011835 1.027769 -0.089607
vn -0.4742 -0.0000 -0.8804
vn 0.8804 -0.0000 -0.4742
vn 0.4742 -0.0000 0.8804
vn -0.8804 -0.0000 0.4742
vn -0.0000 -1.0000 -0.0000
vn -0.0000 1.0000 -0.0000
vt 0.625000 0.000000
vt 0.375000 0.250000
vt 0.375000 0.000000
vt 0.625000 0.250000
vt 0.375000 0.500000
vt 0.625000 0.500000
vt 0.375000 0.750000
vt 0.625000 0.750000
vt 0.375000 1.000000
vt 0.125000 0.750000
vt 0.125000 0.500000
vt 0.875000 0.500000
vt 0.625000 1.000000
vt 0.875000 0.750000
s 0
f 10/15/7 11/16/7 9/17/7
f 12/18/8 15/19/8 11/16/8
f 16/20/9 13/21/9 15/19/9
f 14/22/10 9/23/10 13/21/10
f 15/19/11 9/24/11 11/25/11
f 12/26/12 14/22/12 16/20/12
f 10/15/7 12/18/7 11/16/7
f 12/18/8 16/20/8 15/19/8
f 16/20/9 14/22/9 13/21/9
f 14/22/10 10/27/10 9/23/10
f 15/19/11 13/21/11 9/24/11
f 12/26/12 10/28/12 14/22/12
o Cube.002
v -1.010140 0.000000 -0.992739
v -1.010140 2.000000 -0.992739
v 0.989860 0.000000 -0.992739
v 0.989860 2.000000 -0.992739
v -1.010140 0.000000 1.007261
v -1.010140 2.000000 1.007261
v 0.989860 0.000000 1.007261
v 0.989860 2.000000 1.007261
vn -0.0000 -0.0000 -1.0000
vn -0.0000 -1.0000 -0.0000
vn -0.0000 1.0000 -0.0000
vt 0.625000 0.000000
vt 0.375000 0.250000
vt 0.375000 0.000000
vt 0.375000 0.500000
vt 0.125000 0.750000
vt 0.125000 0.500000
vt 0.875000 0.500000
vt 0.625000 0.750000
vt 0.625000 0.500000
vt 0.625000 0.250000
vt 0.375000 0.750000
vt 0.875000 0.750000
s 0
f 18/29/13 19/30/13 17/31/13
f 23/32/14 17/33/14 19/34/14
f 20/35/15 22/36/15 24/37/15
f 18/29/13 20/38/13 19/30/13
f 23/32/14 21/39/14 17/33/14
f 20/35/15 18/40/15 22/36/15
